<svg id="Logos" xmlns="http://www.w3.org/2000/svg" viewBox="0 0 373.70551 152.97449"><defs><style>.cls-1{fill:#fff;}.cls-2{fill:#69dbc8;}</style></defs><title>insigh_io Logo (negative)</title><path class="cls-1" d="M105.90342,112.30516a3.06417,3.06417,0,0,0-1.625-.42286,3.14056,3.14056,0,0,0-1.668.44141,3.105,3.105,0,0,0-1.13379,1.208,3.68755,3.68755,0,0,0-.41114,1.77246,3.53734,3.53734,0,0,0,.43555,1.76562,3.13128,3.13128,0,0,0,1.20117,1.208,3.5637,3.5637,0,0,0,2.96192.208,3.33387,3.33387,0,0,0,1.03027-.57031.35365.35365,0,0,0,.14063-.29395.45856.45856,0,0,0-.165-.31933.43862.43862,0,0,0-.29493-.0918.50261.50261,0,0,0-.30664.11719,2.1465,2.1465,0,0,1-.71679.38574,2.72415,2.72415,0,0,1-.88965.15332,2.52029,2.52029,0,0,1-1.29981-.33106,2.40231,2.40231,0,0,1-.88867-.90722,2.57161,2.57161,0,0,1-.28979-1.01758h4.93139a.44159.44159,0,0,0,.31836-.11719.40893.40893,0,0,0,.123-.3125,3.71248,3.71248,0,0,0-.37988-1.7041A2.8634,2.8634,0,0,0,105.90342,112.30516Zm-2.85157.75488a2.25885,2.25885,0,0,1,1.22657-.33106,2.14854,2.14854,0,0,1,1.18359.31836,2.10758,2.10758,0,0,1,.7666.88282,2.686,2.686,0,0,1,.2243.8955H101.997a2.79056,2.79056,0,0,1,.23944-.85254A2.21525,2.21525,0,0,1,103.05185,113.06Zm17.56739.12207a3.259,3.259,0,0,1,.3125,1.47168V118.186a.44236.44236,0,0,1-.46582.46582.47652.47652,0,0,1-.34375-.1289.445.445,0,0,1-.13477-.33692v-3.53222a2.00335,2.00335,0,0,0-.45313-1.37988,1.49249,1.49249,0,0,0-1.165-.50879,1.64358,1.64358,0,0,0-1.24512.50879,1.84017,1.84017,0,0,0-.47168,1.35546H116.65c.00006.00867.00244.01569.00244.02442V118.186a.44244.44244,0,0,1-.4668.46582.47577.47577,0,0,1-.34277-.1289.445.445,0,0,1-.13477-.33692v-3.53222a1.999,1.999,0,0,0-.4541-1.37988,1.4911,1.4911,0,0,0-1.165-.50879,1.68412,1.68412,0,0,0-1.251.49707,1.76182,1.76182,0,0,0-.49024,1.29394V118.186a.44236.44236,0,0,1-.46582.46582.47189.47189,0,0,1-.34961-.1289.45564.45564,0,0,1-.1289-.33692v-5.76367a.47654.47654,0,0,1,.1289-.34375.46051.46051,0,0,1,.34961-.13476.445.445,0,0,1,.33691.13476.47654.47654,0,0,1,.12891.34375v.28473a2.48774,2.48774,0,0,1,3.12109-.49371,2.30924,2.30924,0,0,1,.78516.84259,2.44109,2.44109,0,0,1,.85156-.84259,2.698,2.698,0,0,1,1.36133-.34278,2.39739,2.39739,0,0,1,1.28125.34278A2.33951,2.33951,0,0,1,120.61924,113.18211Zm10.04882-.85156a3.22483,3.22483,0,0,0-1.6914-.44825,3.1614,3.1614,0,0,0-1.49024.34961,2.962,2.962,0,0,0-1.07324.92578v-3.60546a.4734.4734,0,0,0-.12891-.34961.45884.45884,0,0,0-.33691-.12793.44346.44346,0,0,0-.47852.47754v5.78808a3.437,3.437,0,0,0,.46,1.72363,3.27891,3.27891,0,0,0,1.21386,1.207,3.38449,3.38449,0,0,0,1.72266.44238,3.42922,3.42922,0,0,0,1.75391-.44824,3.29512,3.29512,0,0,0,1.2207-1.21973,3.44079,3.44079,0,0,0,.44726-1.75391,3.4863,3.4863,0,0,0-.43554-1.74121A3.25569,3.25569,0,0,0,130.66806,112.33055Zm.36231,4.27343a2.43408,2.43408,0,0,1-2.165,1.251,2.41212,2.41212,0,0,1-2.14551-1.251,2.84291,2.84291,0,0,1,0-2.61816,2.34428,2.34428,0,0,1,.88281-.91406,2.59778,2.59778,0,0,1,2.53809,0,2.38874,2.38874,0,0,1,.88965.91406,2.79749,2.79749,0,0,1,0,2.61816Zm10.043-4.29882a3.06417,3.06417,0,0,0-1.625-.42286,3.14056,3.14056,0,0,0-1.668.44141,3.10512,3.10512,0,0,0-1.13379,1.208,3.68766,3.68766,0,0,0-.41113,1.77246,3.53734,3.53734,0,0,0,.43554,1.76562,3.13123,3.13123,0,0,0,1.20118,1.208,3.56368,3.56368,0,0,0,2.96191.208,3.33387,3.33387,0,0,0,1.03027-.57031.35365.35365,0,0,0,.14063-.29395.45856.45856,0,0,0-.165-.31933.43861.43861,0,0,0-.29492-.0918.50256.50256,0,0,0-.30664.11719,2.14666,2.14666,0,0,1-.7168.38574,2.72415,2.72415,0,0,1-.88965.15332,2.52025,2.52025,0,0,1-1.2998-.33106,2.40226,2.40226,0,0,1-.88868-.90722,2.57177,2.57177,0,0,1-.28979-1.01758h4.9314a.4416.4416,0,0,0,.31836-.11719.40893.40893,0,0,0,.123-.3125,3.71248,3.71248,0,0,0-.37988-1.7041A2.8634,2.8634,0,0,0,141.07334,112.30516Zm-2.85157.75488a2.25887,2.25887,0,0,1,1.22657-.33106,2.14852,2.14852,0,0,1,1.18359.31836,2.10751,2.10751,0,0,1,.7666.88282,2.68625,2.68625,0,0,1,.22431.8955H137.1669a2.79084,2.79084,0,0,1,.23944-.85254A2.21525,2.21525,0,0,1,138.22177,113.06Zm14.08985-3.98535a.4816.4816,0,0,0-.34375.12793.46192.46192,0,0,0-.13477.34961v3.60546a2.98006,2.98006,0,0,0-1.0664-.92578,3.12663,3.12663,0,0,0-1.48438-.34961,3.22509,3.22509,0,0,0-2.875,1.668,3.4863,3.4863,0,0,0-.43555,1.74121,3.4408,3.4408,0,0,0,.44727,1.75391,3.29512,3.29512,0,0,0,1.2207,1.21973,3.59067,3.59067,0,0,0,3.46387.00586,3.27181,3.27181,0,0,0,1.21387-1.207,3.53836,3.53836,0,0,0,.47265-1.72363v-5.78808a.462.462,0,0,0-.13476-.34961A.48324.48324,0,0,0,152.31162,109.07469Zm-.77832,7.52929a2.46829,2.46829,0,0,1-.88281.91309,2.54107,2.54107,0,0,1-2.53223,0,2.48662,2.48662,0,0,1-.89551-.91309,2.75377,2.75377,0,0,1,0-2.61816,2.466,2.466,0,0,1,4.31055,0,2.80488,2.80488,0,0,1,0,2.61816Zm11.90039-7.52929a.4816.4816,0,0,0-.34375.12793.46192.46192,0,0,0-.13477.34961v3.60546a2.98006,2.98006,0,0,0-1.0664-.92578,3.12663,3.12663,0,0,0-1.48438-.34961,3.22509,3.22509,0,0,0-2.875,1.668,3.4863,3.4863,0,0,0-.43555,1.74121,3.4408,3.4408,0,0,0,.44727,1.75391,3.29512,3.29512,0,0,0,1.2207,1.21973,3.59067,3.59067,0,0,0,3.46387.00586,3.27181,3.27181,0,0,0,1.21387-1.207,3.53836,3.53836,0,0,0,.47265-1.72363v-5.78808a.462.462,0,0,0-.13476-.34961A.48324.48324,0,0,0,163.43369,109.07469Zm-.77832,7.52929a2.46829,2.46829,0,0,1-.88281.91309,2.54107,2.54107,0,0,1-2.53223,0,2.48662,2.48662,0,0,1-.89551-.91309,2.75377,2.75377,0,0,1,0-2.61816,2.466,2.466,0,0,1,4.31055,0,2.80488,2.80488,0,0,1,0,2.61816Zm6.92871-4.53125a.4719.4719,0,0,1,.12891.34961v5.751a.4719.4719,0,0,1-.12891.34961.45563.45563,0,0,1-.33691.1289.44483.44483,0,0,1-.47852-.47851v-5.751a.44483.44483,0,0,1,.47852-.47851A.45567.45567,0,0,1,169.58408,112.07273Zm.12305-2.56347a.61325.61325,0,0,1,.20214.48437.67021.67021,0,0,1-.6748.67481.63645.63645,0,0,1-.46582-.19629.65063.65063,0,0,1-.19629-.47852.61322.61322,0,0,1,.20215-.48437.696.696,0,0,1,.47266-.17774A.67885.67885,0,0,1,169.70713,109.50926Zm10.68066,3.7832a3.40327,3.40327,0,0,1,.39844,1.70508V118.186a.46026.46026,0,0,1-.4668.46582.46435.46435,0,0,1-.34277-.13476.45.45,0,0,1-.13477-.33106v-3.18847a2.45016,2.45016,0,0,0-.28808-1.251,1.84639,1.84639,0,0,0-.78516-.73633,2.5058,2.5058,0,0,0-1.12207-.24511,2.46981,2.46981,0,0,0-1.085.23339,1.9296,1.9296,0,0,0-.7666.6377,1.56586,1.56586,0,0,0-.28223.91992V118.186a.44236.44236,0,0,1-.46582.46582.47189.47189,0,0,1-.34961-.1289.45565.45565,0,0,1-.12891-.33692v-5.76367a.44483.44483,0,0,1,.47852-.47851.45566.45566,0,0,1,.33691.1289.4719.4719,0,0,1,.12891.34961v.44782a2.80884,2.80884,0,0,1,.78516-.65094,3.00761,3.00761,0,0,1,1.44629-.34864,3.28953,3.28953,0,0,1,1.55761.36133A2.66345,2.66345,0,0,1,180.38779,113.29246Zm10.94922.2334a3.12468,3.12468,0,0,0-1.20117-1.208,3.761,3.761,0,0,0-3.51367,0,3.15683,3.15683,0,0,0-1.21387,1.208,3.52226,3.52226,0,0,0-.44141,1.77832,3.61506,3.61506,0,0,0,.42285,1.76562,3.089,3.089,0,0,0,1.1709,1.208,3.35376,3.35376,0,0,0,1.7168.43555,2.91912,2.91912,0,0,0,1.52734-.39942,2.80221,2.80221,0,0,0,1.04785-1.10351v.55859a2.93326,2.93326,0,0,1-.32421,1.41016,2.33982,2.33982,0,0,1-2.11524,1.26269,2.9402,2.9402,0,0,1-1.29394-.26953,2.61586,2.61586,0,0,1-.91407-.71093.4749.4749,0,0,0-.30664-.18458.45192.45192,0,0,0-.35547.07422.38332.38332,0,0,0-.17773.28125.40018.40018,0,0,0,.11621.31934,3.38229,3.38229,0,0,0,1.21484.9873,3.8283,3.8283,0,0,0,1.70411.36133,3.29607,3.29607,0,0,0,1.74121-.46,3.33916,3.33916,0,0,0,1.20214-1.251,3.60171,3.60171,0,0,0,.44141-1.78417v-2.501A3.64955,3.64955,0,0,0,191.337,113.52586Zm-.80274,3.10254a2.32975,2.32975,0,0,1-.87695.90136,2.497,2.497,0,0,1-1.28125.3252,2.53241,2.53241,0,0,1-1.28808-.3252,2.31743,2.31743,0,0,1-.88282-.90136,2.68925,2.68925,0,0,1-.31836-1.32422,2.72394,2.72394,0,0,1,.31836-1.33106,2.30684,2.30684,0,0,1,.88282-.90722,2.53241,2.53241,0,0,1,1.28808-.3252,2.497,2.497,0,0,1,1.28125.3252,2.31906,2.31906,0,0,1,.87695.90722,2.72383,2.72383,0,0,1,.31836,1.33106A2.68914,2.68914,0,0,1,190.53427,116.6284Z"/><path class="cls-1" d="M236.17777,109.50926a.61326.61326,0,0,1,.20215.48437.67023.67023,0,0,1-.67481.67481.63645.63645,0,0,1-.46582-.19629.65063.65063,0,0,1-.19629-.47852.61326.61326,0,0,1,.20215-.48437.69607.69607,0,0,1,.47266-.17774A.67885.67885,0,0,1,236.17777,109.50926Zm-.46,2.43457a.44483.44483,0,0,0-.47852.47851v5.751a.44483.44483,0,0,0,.47852.47851.45563.45563,0,0,0,.33691-.1289.4719.4719,0,0,0,.12891-.34961v-5.751a.4719.4719,0,0,0-.12891-.34961A.45567.45567,0,0,0,235.71781,111.94383Zm10.05468.28808a3.28951,3.28951,0,0,0-1.55761-.36133,3.00764,3.00764,0,0,0-1.44629.34864,2.80884,2.80884,0,0,0-.78516.65094v-.44782a.47193.47193,0,0,0-.1289-.34961.4557.4557,0,0,0-.33692-.1289.44482.44482,0,0,0-.47851.47851V118.186a.45564.45564,0,0,0,.1289.33692.47189.47189,0,0,0,.34961.1289.44234.44234,0,0,0,.46582-.46582v-3.62988a1.56586,1.56586,0,0,1,.28223-.91992,1.9296,1.9296,0,0,1,.7666-.6377,2.46985,2.46985,0,0,1,1.085-.23339,2.50577,2.50577,0,0,1,1.12207.24511,1.84634,1.84634,0,0,1,.78516.73633,2.45016,2.45016,0,0,1,.28808,1.251V118.186a.45007.45007,0,0,0,.13477.33106.46435.46435,0,0,0,.34277.13476.46026.46026,0,0,0,.4668-.46582v-3.18847a3.40327,3.40327,0,0,0-.39844-1.70508A2.66345,2.66345,0,0,0,245.77249,112.23191Zm8.97657,5.47559H254.418a1.22963,1.22963,0,0,1-.94433-.39844,1.45135,1.45135,0,0,1-.36719-1.02441v-3.27442h1.38574a.427.427,0,0,0,.30664-.11621.38287.38287,0,0,0,.12207-.28808.39877.39877,0,0,0-.12207-.30078.43118.43118,0,0,0-.30664-.11622h-1.38574v-1.90039a.46126.46126,0,0,0-.47852-.47851.445.445,0,0,0-.33691.13476.47656.47656,0,0,0-.12891.34375v1.90039h-.79687a.42792.42792,0,0,0-.30664.11622.396.396,0,0,0-.12305.30078.38028.38028,0,0,0,.12305.28808.42381.42381,0,0,0,.30664.11621h.79687v3.27442a2.48649,2.48649,0,0,0,.29395,1.2207,2.17882,2.17882,0,0,0,1.96191,1.14648h.25781a.53922.53922,0,0,0,.36817-.1289.42742.42742,0,0,0,.14648-.33692.489.489,0,0,0-.12207-.34375A.41244.41244,0,0,0,254.74906,117.7075Zm9.98242-4.23047a3.71248,3.71248,0,0,1,.37988,1.7041.4089.4089,0,0,1-.123.3125.44158.44158,0,0,1-.31835.11719h-4.9314a2.57177,2.57177,0,0,0,.28979,1.01758,2.40226,2.40226,0,0,0,.88868.90722,2.52025,2.52025,0,0,0,1.2998.33106,2.72415,2.72415,0,0,0,.88965-.15332,2.14666,2.14666,0,0,0,.7168-.38574.50256.50256,0,0,1,.30664-.11719.43861.43861,0,0,1,.29492.0918.45856.45856,0,0,1,.165.31933.35365.35365,0,0,1-.14063.29395,3.33387,3.33387,0,0,1-1.03027.57031,3.5637,3.5637,0,0,1-2.96192-.208,3.13128,3.13128,0,0,1-1.20117-1.208,3.53734,3.53734,0,0,1-.43554-1.76562,3.68755,3.68755,0,0,1,.41113-1.77246,3.10512,3.10512,0,0,1,1.13379-1.208,3.14056,3.14056,0,0,1,1.668-.44141,3.06417,3.06417,0,0,1,1.625.42286A2.8634,2.8634,0,0,1,264.73148,113.477Zm-4.74024.49609a2.79084,2.79084,0,0,0-.23944.85254h4.45594a2.68625,2.68625,0,0,0-.22431-.8955,2.10751,2.10751,0,0,0-.7666-.88282,2.14852,2.14852,0,0,0-1.18359-.31836,2.25887,2.25887,0,0,0-1.22657.33106A2.21525,2.21525,0,0,0,259.99124,113.97312Zm10.9209,3.7461h-.30664a.6341.6341,0,0,1-.5459-.33106,1.55748,1.55748,0,0,1-.21484-.8584v-6.98925a.46609.46609,0,1,0-.93164,0v6.98925a2.66954,2.66954,0,0,0,.21484,1.1045,1.76519,1.76519,0,0,0,.60059.74707,1.4901,1.4901,0,0,0,.877.2705h.15918a.59757.59757,0,0,0,.39844-.1289.41811.41811,0,0,0,.15332-.33692.49762.49762,0,0,0-.11035-.33789A.36758.36758,0,0,0,270.91214,117.71922Zm5.91016,0h-.30664a.6341.6341,0,0,1-.5459-.33106,1.55739,1.55739,0,0,1-.21484-.8584v-6.98925a.46609.46609,0,1,0-.93164,0v6.98925a2.66938,2.66938,0,0,0,.21484,1.1045,1.76512,1.76512,0,0,0,.60059.74707,1.4901,1.4901,0,0,0,.877.2705h.15918a.59757.59757,0,0,0,.39844-.1289.41814.41814,0,0,0,.15332-.33692.49763.49763,0,0,0-.11036-.33789A.36756.36756,0,0,0,276.8223,117.71922Zm4.832-5.77539a.44483.44483,0,0,0-.47852.47851v5.751a.44483.44483,0,0,0,.47852.47851.45562.45562,0,0,0,.33691-.1289.4719.4719,0,0,0,.12891-.34961v-5.751a.4719.4719,0,0,0-.12891-.34961A.45566.45566,0,0,0,281.65433,111.94383Zm0-2.61231a.69607.69607,0,0,0-.47266.17774.61325.61325,0,0,0-.20214.48437.65066.65066,0,0,0,.19628.47852.63647.63647,0,0,0,.46583.19629.67023.67023,0,0,0,.6748-.67481.61322.61322,0,0,0-.20215-.48437A.67881.67881,0,0,0,281.65433,109.33152Zm11.33594,4.19434a3.64955,3.64955,0,0,1,.44824,1.77832v2.501a3.60171,3.60171,0,0,1-.44141,1.78417,3.33916,3.33916,0,0,1-1.20214,1.251,3.29608,3.29608,0,0,1-1.74122.46,3.82828,3.82828,0,0,1-1.7041-.36133,3.38229,3.38229,0,0,1-1.21484-.9873.40018.40018,0,0,1-.11621-.31934.38332.38332,0,0,1,.17773-.28125.45192.45192,0,0,1,.35547-.07422.4749.4749,0,0,1,.30664.18458,2.61582,2.61582,0,0,0,.91406.71093,2.94024,2.94024,0,0,0,1.29395.26953,2.33979,2.33979,0,0,0,2.11523-1.26269,2.93326,2.93326,0,0,0,.32422-1.41016v-.55859a2.80221,2.80221,0,0,1-1.04785,1.10351,2.91912,2.91912,0,0,1-1.52734.39942,3.35373,3.35373,0,0,1-1.7168-.43555,3.089,3.089,0,0,1-1.1709-1.208,3.61506,3.61506,0,0,1-.42285-1.76562,3.52226,3.52226,0,0,1,.44141-1.77832,3.15688,3.15688,0,0,1,1.21386-1.208,3.761,3.761,0,0,1,3.51368,0A3.12468,3.12468,0,0,1,292.99027,113.52586Zm-.48438,1.77832a2.72394,2.72394,0,0,0-.31836-1.33106,2.31906,2.31906,0,0,0-.87695-.90722,2.497,2.497,0,0,0-1.28125-.3252,2.53248,2.53248,0,0,0-1.28809.3252,2.30689,2.30689,0,0,0-.88281.90722,2.72394,2.72394,0,0,0-.31836,1.33106,2.68925,2.68925,0,0,0,.31836,1.32422,2.31748,2.31748,0,0,0,.88281.90136,2.53248,2.53248,0,0,0,1.28809.3252,2.497,2.497,0,0,0,1.28125-.3252,2.32975,2.32975,0,0,0,.87695-.90136A2.68925,2.68925,0,0,0,292.50589,115.30418Zm10.7793-1.82715a3.71248,3.71248,0,0,1,.37988,1.7041.40893.40893,0,0,1-.123.3125.4416.4416,0,0,1-.31836.11719h-4.9314a2.57177,2.57177,0,0,0,.28979,1.01758,2.40226,2.40226,0,0,0,.88868.90722,2.52025,2.52025,0,0,0,1.2998.33106,2.72415,2.72415,0,0,0,.88965-.15332,2.14666,2.14666,0,0,0,.7168-.38574.50256.50256,0,0,1,.30664-.11719.4386.4386,0,0,1,.29492.0918.45856.45856,0,0,1,.165.31933.35365.35365,0,0,1-.14063.29395,3.33376,3.33376,0,0,1-1.03027.57031,3.56368,3.56368,0,0,1-2.96191-.208,3.13123,3.13123,0,0,1-1.20118-1.208,3.53734,3.53734,0,0,1-.43554-1.76562,3.68766,3.68766,0,0,1,.41113-1.77246,3.10512,3.10512,0,0,1,1.13379-1.208,3.14056,3.14056,0,0,1,1.668-.44141,3.06417,3.06417,0,0,1,1.625.42286A2.8634,2.8634,0,0,1,303.28519,113.477Zm-4.74023.49609a2.79057,2.79057,0,0,0-.23945.85254h4.45594a2.68625,2.68625,0,0,0-.22431-.8955,2.10751,2.10751,0,0,0-.7666-.88282,2.14849,2.14849,0,0,0-1.18359-.31836,2.25882,2.25882,0,0,0-1.22656.33106A2.21512,2.21512,0,0,0,298.545,113.97312Zm13.90039-1.74121a3.28957,3.28957,0,0,0-1.55762-.36133,3.00764,3.00764,0,0,0-1.44629.34864,2.80884,2.80884,0,0,0-.78516.65094v-.44782a.47193.47193,0,0,0-.1289-.34961.45568.45568,0,0,0-.33692-.1289.44482.44482,0,0,0-.47851.47851V118.186a.45568.45568,0,0,0,.1289.33692.47189.47189,0,0,0,.34961.1289.44234.44234,0,0,0,.46582-.46582v-3.62988a1.56586,1.56586,0,0,1,.28223-.91992,1.9296,1.9296,0,0,1,.7666-.6377,2.46985,2.46985,0,0,1,1.085-.23339,2.50577,2.50577,0,0,1,1.12207.24511,1.84628,1.84628,0,0,1,.78516.73633,2.45006,2.45006,0,0,1,.28809,1.251V118.186a.45006.45006,0,0,0,.13476.33106.46435.46435,0,0,0,.34277.13476.46024.46024,0,0,0,.4668-.46582v-3.18847a3.40327,3.40327,0,0,0-.39844-1.70508A2.66348,2.66348,0,0,0,312.44535,112.23191Zm10.2705-.05468a3.22313,3.22313,0,0,0-1.3789-.29493,3.10107,3.10107,0,0,0-1.668.44825,3.1765,3.1765,0,0,0-1.14063,1.21972,3.62834,3.62834,0,0,0-.417,1.75391,3.4889,3.4889,0,0,0,.43555,1.74121,3.24193,3.24193,0,0,0,1.18945,1.21973,3.30754,3.30754,0,0,0,1.72266.44824,3.17926,3.17926,0,0,0,2.23242-.82227.33217.33217,0,0,0,.11621-.29394.48037.48037,0,0,0-.166-.30664.40537.40537,0,0,0-.29395-.09864.54346.54346,0,0,0-.30664.13575,1.97483,1.97483,0,0,1-.70508.39843,2.835,2.835,0,0,1-.87695.12891,2.39447,2.39447,0,0,1-1.2627-.332,2.28542,2.28542,0,0,1-.8584-.90723,2.73992,2.73992,0,0,1-.30664-1.31152,2.92371,2.92371,0,0,1,.28809-1.3252,2.23063,2.23063,0,0,1,.80957-.90722,2.20209,2.20209,0,0,1,1.208-.33106,2.28192,2.28192,0,0,1,1.79.80957.486.486,0,0,0,.28808.17774.37591.37591,0,0,0,.30078-.06739.48569.48569,0,0,0,.208-.28808.33709.33709,0,0,0-.09765-.3125A3.12148,3.12148,0,0,0,322.71585,112.17723Zm11.44727,3.0039a.40893.40893,0,0,1-.123.3125.44159.44159,0,0,1-.31836.11719h-4.93139a2.57161,2.57161,0,0,0,.28979,1.01758,2.40231,2.40231,0,0,0,.88867.90722,2.52029,2.52029,0,0,0,1.29981.33106,2.72415,2.72415,0,0,0,.88965-.15332,2.1465,2.1465,0,0,0,.71679-.38574.50261.50261,0,0,1,.30664-.11719.43864.43864,0,0,1,.29493.0918.4586.4586,0,0,1,.165.31933.35365.35365,0,0,1-.14063.29395,3.33387,3.33387,0,0,1-1.03027.57031,3.5637,3.5637,0,0,1-2.96192-.208,3.13128,3.13128,0,0,1-1.20117-1.208,3.53734,3.53734,0,0,1-.43555-1.76562,3.68755,3.68755,0,0,1,.41114-1.77246,3.105,3.105,0,0,1,1.13379-1.208,3.14055,3.14055,0,0,1,1.668-.44141,3.06412,3.06412,0,0,1,1.625.42286,2.86336,2.86336,0,0,1,1.07325,1.17187A3.71248,3.71248,0,0,1,334.16312,115.18113Zm-5.12012-1.208a2.79056,2.79056,0,0,0-.23944.85254h4.45593a2.686,2.686,0,0,0-.2243-.8955,2.10758,2.10758,0,0,0-.7666-.88282,2.14855,2.14855,0,0,0-1.1836-.31836,2.25882,2.25882,0,0,0-1.22656.33106A2.21525,2.21525,0,0,0,329.043,113.97312Z"/><path class="cls-1" d="M104.50351,66.49735a1.96532,1.96532,0,0,1,.52875,1.45465v32.20508a1.98567,1.98567,0,0,1-.52875,1.42072,1.90144,1.90144,0,0,1-1.45465.56268,1.92123,1.92123,0,0,1-1.98334-1.9834V67.952a1.90022,1.90022,0,0,1,.56067-1.45465,2.00246,2.00246,0,0,1,1.42267-.52875A1.97342,1.97342,0,0,1,104.50351,66.49735Zm33.55994.95978a18.48528,18.48528,0,0,0-8.56409-1.95142,16.05864,16.05864,0,0,0-7.736,1.88556,15.60082,15.60082,0,0,0-4.82874,4.02167V67.952a1.82958,1.82958,0,0,0-1.9834-1.9834,1.99432,1.99432,0,0,0-1.42071.52875,1.90144,1.90144,0,0,0-.56268,1.45465v32.20508a1.92431,1.92431,0,0,0,1.98339,1.9834,1.90121,1.90121,0,0,0,1.45459-.56268,1.98545,1.98545,0,0,0,.52881-1.42072V79.92216a9.1653,9.1653,0,0,1,1.65412-5.35755,11.21832,11.21832,0,0,1,4.49554-3.73529,14.72373,14.72373,0,0,1,6.4151-1.35687,14.50348,14.50348,0,0,1,6.51288,1.42273,10.77319,10.77319,0,0,1,4.56335,4.264,13.97321,13.97321,0,0,1,1.6861,7.20922v17.78864a1.98374,1.98374,0,1,0,3.96674,0V82.36844a18.0245,18.0245,0,0,0-2.18091-9.22454A14.44808,14.44808,0,0,0,138.06345,67.45713Zm35.30987,16.763a22.58681,22.58681,0,0,0-7.83575-2.24872,25.39662,25.39662,0,0,1-5.81848-1.42273,7.187,7.187,0,0,1-3.14069-2.18091,4.8962,4.8962,0,0,1-.95978-3.009,5.28523,5.28523,0,0,1,2.31458-4.298,10.38723,10.38723,0,0,1,6.481-1.78583,12.81253,12.81253,0,0,1,5.45532,1.09143,10.80919,10.80919,0,0,1,4.00067,3.20654,2.05336,2.05336,0,0,0,1.25708.79419,2.163,2.163,0,0,0,1.38879-.19958,1.83964,1.83964,0,0,0,1.02362-1.22315,1.63564,1.63564,0,0,0-.36316-1.42065,13.94835,13.94835,0,0,0-5.0263-4.332,16.30363,16.30363,0,0,0-7.60431-1.62024,17.54032,17.54032,0,0,0-6.57874,1.15735,10.09128,10.09128,0,0,0-4.52941,3.438,9.265,9.265,0,0,0-1.65418,5.589,7.83238,7.83238,0,0,0,3.17462,6.14972q3.17257,2.64579,9.78723,3.56971,5.157.73031,7.63623,2.41436a5.00712,5.00712,0,0,1,2.48023,4.26606,5.94541,5.94541,0,0,1-2.31464,4.62725q-2.31656,1.98441-7.86969,1.98542a19.2684,19.2684,0,0,1-5.98407-.89392,10.14715,10.14715,0,0,1-4.66113-3.14075,1.92387,1.92387,0,0,0-1.22314-.72827,1.85194,1.85194,0,0,0-1.42273.33124,1.87527,1.87527,0,0,0-.82605,1.289,1.82687,1.82687,0,0,0,.429,1.42267,13.75636,13.75636,0,0,0,6.28339,4.23217,22.7637,22.7637,0,0,0,7.20727,1.25708,19.63751,19.63751,0,0,0,7.00971-1.22516,12.54778,12.54778,0,0,0,5.22381-3.53778,8.06358,8.06358,0,0,0,1.9834-5.42138,8.66452,8.66452,0,0,0-1.22314-4.46363A10.40266,10.40266,0,0,0,173.37332,84.22013ZM185.63876,65.9686a1.99417,1.99417,0,0,0-1.42065.52875,1.90144,1.90144,0,0,0-.56268,1.45465v32.20508a1.9243,1.9243,0,0,0,1.98333,1.9834,1.89847,1.89847,0,0,0,1.45466-.56268,1.98711,1.98711,0,0,0,.53076-1.42072V67.952a1.8323,1.8323,0,0,0-1.98542-1.9834Zm42.52112,8.53015a18.9918,18.9918,0,0,1,2.38044,9.58771V97.04832a19.58911,19.58911,0,0,1-2.38044,9.65356,17.92053,17.92053,0,0,1-6.48095,6.7782,17.6537,17.6537,0,0,1-9.32428,2.48022,19.1256,19.1256,0,0,1-15.73743-7.27307,2.19061,2.19061,0,0,1-.52875-1.38873,1.39557,1.39557,0,0,1,.66046-1.19122,1.92645,1.92645,0,0,1,1.55439-.3971,1.84964,1.84964,0,0,1,1.35485.86,16.49125,16.49125,0,0,0,5.22388,4.06652,16.24817,16.24817,0,0,0,7.4726,1.62024,13.60155,13.60155,0,0,0,7.307-1.98339,14.06117,14.06117,0,0,0,5.05823-5.45527,16.24134,16.24134,0,0,0,1.85169-7.76995V94.18c-.12659.25336-.25593.50537-.3971.75122a14.58382,14.58382,0,0,1-5.68677,5.589,17.02664,17.02664,0,0,1-8.39843,2.01733,18.99188,18.99188,0,0,1-9.58771-2.38049,17.30508,17.30508,0,0,1-6.54675-6.54675,18.86107,18.86107,0,0,1-2.3805-9.52387,18.58808,18.58808,0,0,1,2.44635-9.58771,17.70843,17.70843,0,0,1,6.64655-6.54675,20.10141,20.10141,0,0,1,18.97784,0A17.37755,17.37755,0,0,1,228.15988,74.49875Zm-1.58831,9.58771a15.60657,15.60657,0,0,0-1.85169-7.70209,13.406,13.406,0,0,0-5.12408-5.22381,14.76954,14.76954,0,0,0-7.50653-1.88562,14.94668,14.94668,0,0,0-7.53846,1.88562,13.32469,13.32469,0,0,0-5.156,5.22381,16.8115,16.8115,0,0,0,0,15.34034,13.32469,13.32469,0,0,0,5.156,5.22381,14.94668,14.94668,0,0,0,7.53846,1.88562,14.76954,14.76954,0,0,0,7.50653-1.88562,13.406,13.406,0,0,0,5.12408-5.22381A15.47157,15.47157,0,0,0,226.57157,84.08646Zm33.69165-16.62933a18.48528,18.48528,0,0,0-8.56409-1.95142,16.06427,16.06427,0,0,0-7.736,1.88556,15.60737,15.60737,0,0,0-4.82679,4.02088V52.478a1.82948,1.82948,0,0,0-1.98333-1.9834,1.99913,1.99913,0,0,0-1.42273.52875,1.90142,1.90142,0,0,0-.56269,1.45465v47.67908a1.92442,1.92442,0,0,0,1.98542,1.9834,1.90132,1.90132,0,0,0,1.45459-.56268,1.99408,1.99408,0,0,0,.52874-1.42072V79.92216a9.17754,9.17754,0,0,1,1.65216-5.35755,11.22458,11.22458,0,0,1,4.49756-3.73529,14.71437,14.71437,0,0,1,6.41309-1.35687,14.51191,14.51191,0,0,1,6.51483,1.42273,10.76883,10.76883,0,0,1,4.5614,4.264,13.95384,13.95384,0,0,1,1.68805,7.20922v17.78864a1.98373,1.98373,0,1,0,3.9668,0V82.36844a18.02458,18.02458,0,0,0-2.18292-9.22454A14.44814,14.44814,0,0,0,260.26322,67.45713Zm31.50872-1.48853a2.00253,2.00253,0,0,0-1.42273.52875,1.90021,1.90021,0,0,0-.56066,1.45465v32.20508a2.03367,2.03367,0,0,0,3.438,1.42072,1.98541,1.98541,0,0,0,.52875-1.42072V67.952a1.82949,1.82949,0,0,0-1.98334-1.9834Zm44.89954,18.11786a18.55567,18.55567,0,0,1-2.41437,9.42407,17.68828,17.68828,0,0,1-6.57873,6.61261,19.79065,19.79065,0,0,1-18.94593,0,17.63333,17.63333,0,0,1-6.61261-6.61261,19.7389,19.7389,0,0,1,0-18.912,17.64777,17.64777,0,0,1,6.61261-6.61261,19.79065,19.79065,0,0,1,18.94593,0,17.70287,17.70287,0,0,1,6.57873,6.61261A18.68245,18.68245,0,0,1,336.67148,84.08646Zm-3.9668-.06585a14.99394,14.99394,0,0,0-1.88556-7.50452,14.096,14.096,0,0,0-12.59674-7.24115,14.3009,14.3009,0,0,0-12.63061,7.24115,15.77654,15.77654,0,0,0,0,15.0769,14.799,14.799,0,0,0,20.06933,5.28974,14.11438,14.11438,0,0,0,5.158-5.28974A15.13339,15.13339,0,0,0,332.70468,84.02061Z"/><path class="cls-2" d="M79.15956,82.04453l-3.11267-2.18835a6.05715,6.05715,0,0,0-3.91-7.92444v-14.192a1.78363,1.78363,0,1,0-3.56726,0V71.93192a6.0705,6.0705,0,0,0-2.132,1.16846l-7.58258-5.33093a5.32041,5.32041,0,0,1-2.25934-4.34906V36.2208a6.07975,6.07975,0,1,0-3.56726.00012V63.42039a8.89188,8.89188,0,0,0,3.77375,7.26727l7.70294,5.41559a6.0559,6.0559,0,0,0,4.06451,7.45166v40.79254a1.78363,1.78363,0,0,0,3.56726,0V83.55509a6.05441,6.05441,0,0,0,1.73761-.86468l3.23218,2.27233A5.32543,5.32543,0,0,1,79.36726,89.313v22.8736a1.78363,1.78363,0,1,0,3.56726,0V89.313A8.89553,8.89553,0,0,0,79.15956,82.04453ZM50.15937,30.40934a4.65244,4.65244,0,1,1,4.65247,4.65234A4.657,4.657,0,0,1,50.15937,30.40934Zm15.54187,47.3341a4.65244,4.65244,0,1,1,4.65241,4.65241A4.65682,4.65682,0,0,1,65.70124,77.74344Zm-4.53649,3.137L48.76649,72.16416a6.06435,6.06435,0,0,0-3.6322-8.55859v-14.794a1.7836,1.7836,0,1,0-3.5672,0v14.7937a6.079,6.079,0,1,0,4.685,11.15253L59.112,83.79868a5.3254,5.3254,0,0,1,2.26056,4.35022v11.87689a1.78363,1.78363,0,0,0,3.56726,0V88.1489A8.89539,8.89539,0,0,0,61.16475,80.88047Zm-22.467-11.46332a4.65244,4.65244,0,1,1,4.65246,4.65234A4.657,4.657,0,0,1,38.69777,69.41715Z"/><circle class="cls-2" cx="280.34199" cy="98.57208" r="3.56807"/></svg>